<svg xmlns="http://www.w3.org/2000/svg" xmlns:xlink="http://www.w3.org/1999/xlink"
	 viewBox="0 0 34.1 30">
<path d="M11,20L11,20C11,20,11,20,11,20l18.1,0c0.4,0,0.8-0.3,1-0.7l4-14c0.1-0.3,0-0.6-0.2-0.9C33.7,4.1,33.4,4,33.1,4H8.7L8,0.8
	C7.9,0.3,7.5,0,7,0H1C0.4,0,0,0.4,0,1s0.4,1,1,1h5.2c0.1,0.6,3.4,15.4,3.6,16.2C8.7,18.7,8,19.8,8,21c0,1.7,1.3,3,3,3h18.1
	c0.6,0,1-0.4,1-1s-0.4-1-1-1H11c-0.6,0-1-0.4-1-1C10,20.4,10.4,20,11,20z M31.8,6l-3.4,12H11.8L9.1,6H31.8z"/>
<path d="M10,27c0,1.7,1.3,3,3,3s3-1.3,3-3s-1.3-3-3-3S10,25.3,10,27z M13,26c0.6,0,1,0.4,1,1s-0.4,1-1,1s-1-0.4-1-1S12.4,26,13,26z"
	/>
<path d="M24.1,27c0,1.7,1.3,3,3,3s3-1.3,3-3s-1.3-3-3-3S24.1,25.3,24.1,27z M27.1,26c0.6,0,1,0.4,1,1s-0.4,1-1,1s-1-0.4-1-1
	S26.6,26,27.1,26z"/>
</svg>
