<svg xmlns="http://www.w3.org/2000/svg" 
xmlns:xlink="http://www.w3.org/1999/xlink" 
width="24" height="120">
<defs>
<g id='tw'>
	<path d="M18.5,1.8c-0.7,0.3-1.4,0.5-2.2,0.6c0.8-0.5,1.4-1.2,1.7-2.1c-0.7,0.4-1.5,0.7-2.4,0.9C14.9,0.5,13.9,0,12.8,0
			C10.7,0,9,1.7,9,3.8c0,0.3,0,0.6,0.1,0.9C5.9,4.5,3.2,3,1.3,0.7C1,1.3,0.8,1.9,0.8,2.6c0,1.3,0.7,2.5,1.7,3.1
			c-0.6,0-1.2-0.2-1.7-0.5c0,0,0,0,0,0c0,1.8,1.3,3.4,3,3.7c-0.3,0.1-0.6,0.1-1,0.1c-0.2,0-0.5,0-0.7-0.1c0.5,1.5,1.9,2.6,3.5,2.6
			c-1.3,1-2.9,1.6-4.7,1.6c-0.3,0-0.6,0-0.9-0.1C1.7,14.4,3.7,15,5.8,15c7,0,10.8-5.8,10.8-10.8c0-0.2,0-0.3,0-0.5
			C17.3,3.2,17.9,2.5,18.5,1.8z"/>
</g>
<g id='fb'>
	<path d="M4.7,5.2V3.3c0-0.5,0.4-1,1-1h1V0H4.7C3.1,0,1.9,1.3,1.9,2.8v2.3H0v2.3h1.9V15h2.8V7.5h1.9l1-2.3H4.7z"/>
</g>
<g id='inst'>
	<g>
		<path d="M10.3,0H4.7C2.1,0,0,2.1,0,4.7v5.6C0,12.9,2.1,15,4.7,15h5.6c2.6,0,4.7-2.1,4.7-4.7V4.7C15,2.1,12.9,0,10.3,0z M13.6,10.3
			c0,1.8-1.5,3.3-3.3,3.3H4.7c-1.8,0-3.3-1.5-3.3-3.3V4.7c0-1.8,1.5-3.3,3.3-3.3h5.6c1.8,0,3.3,1.5,3.3,3.3V10.3z"/>
	</g>

<g>
	<g>
		<path d="M7.5,3.8c-2.1,0-3.8,1.7-3.8,3.8s1.7,3.8,3.8,3.8s3.8-1.7,3.8-3.8S9.6,3.8,7.5,3.8z M7.5,9.8c-1.3,0-2.3-1.1-2.3-2.3
			c0-1.3,1.1-2.3,2.3-2.3s2.3,1.1,2.3,2.3C9.8,8.8,8.8,9.8,7.5,9.8z"/>
	</g>
</g>
<g>
	<g>
		<circle cx="11.5" cy="3.5" r="0.5"/>
	</g>
</g>
</g>
<g id='pin'>
	<path d="M6.3,0C2.2,0,0,2.6,0,5.5c0,1.3,0.7,3,1.9,3.5c0.2,0.1,0.3,0,0.3-0.1c0-0.1,0.2-0.7,0.3-1c0-0.1,0-0.2-0.1-0.3
			C2.1,7.2,1.8,6.3,1.8,5.5c0-2,1.6-3.9,4.3-3.9c2.3,0,4,1.5,4,3.7c0,2.5-1.3,4.2-3,4.2c-0.9,0-1.6-0.7-1.4-1.6
			c0.3-1.1,0.8-2.2,0.8-3c0-0.7-0.4-1.3-1.2-1.3c-1,0-1.7,0.9-1.7,2.2c0,0.8,0.3,1.3,0.3,1.3s-0.9,3.8-1.1,4.5
			c-0.3,1.2,0,3.2,0.1,3.3c0,0.1,0.1,0.1,0.2,0C3,14.8,4.1,13.2,4.5,12c0.1-0.4,0.6-2.2,0.6-2.2c0.3,0.6,1.2,1,2.2,1
			c2.9,0,4.9-2.5,4.9-5.7C12.2,2.2,9.6,0,6.3,0z"/>
</g>

</defs>
<use x="0" y="0" xlink:href="#tw" fill="#1DA1F2"/>
<use x="0" y="15" xlink:href="#tw" fill="#1B95E0"/>
<use x="0" y="30" xlink:href="#fb" fill="#4267B2"/>
<use x="0" y="45" xlink:href="#fb" fill="#0D1424"/>
<use x="0" y="60" xlink:href="#inst" fill="#C22F69"/>
<use x="0" y="75" xlink:href="#inst" fill="#9B2AAF"/>
<use x="0" y="90" xlink:href="#pin" fill="#CB2027"/>
<use x="0" y="105" xlink:href="#pin" fill="#94191D"/>

</svg>